<svg width="375" height="28" viewBox="0 0 375 28" fill="none" xmlns="http://www.w3.org/2000/svg">
<path d="M14.503 27.5921C11.765 27.5921 9.29833 27.0247 7.103 25.8901C4.90766 24.7307 3.181 23.1274 1.923 21.0801C0.689665 19.0081 0.072998 16.6647 0.072998 14.0501C0.072998 11.4354 0.689665 9.10439 1.923 7.05706C3.181 4.98506 4.90766 3.38172 7.103 2.24706C9.29833 1.08772 11.765 0.508057 14.503 0.508057C17.019 0.508057 19.2637 0.952057 21.237 1.84006C23.2103 2.72806 24.8383 4.01072 26.121 5.68806L20.608 10.6091C19.0047 8.58639 17.1177 7.57506 14.947 7.57506C13.1217 7.57506 11.654 8.16706 10.544 9.35106C9.434 10.5104 8.879 12.0767 8.879 14.0501C8.879 16.0234 9.434 17.6021 10.544 18.7861C11.654 19.9454 13.1217 20.5251 14.947 20.5251C17.1177 20.5251 19.0047 19.5137 20.608 17.4911L26.121 22.4121C24.8383 24.0894 23.2103 25.3721 21.237 26.2601C19.2637 27.1481 17.019 27.5921 14.503 27.5921Z" fill="white"/>
<path d="M14.503 27.5921C11.765 27.5921 9.29833 27.0247 7.103 25.8901C4.90766 24.7307 3.181 23.1274 1.923 21.0801C0.689665 19.0081 0.072998 16.6647 0.072998 14.0501C0.072998 11.4354 0.689665 9.10439 1.923 7.05706C3.181 4.98506 4.90766 3.38172 7.103 2.24706C9.29833 1.08772 11.765 0.508057 14.503 0.508057C17.019 0.508057 19.2637 0.952057 21.237 1.84006C23.2103 2.72806 24.8383 4.01072 26.121 5.68806L20.608 10.6091C19.0047 8.58639 17.1177 7.57506 14.947 7.57506C13.1217 7.57506 11.654 8.16706 10.544 9.35106C9.434 10.5104 8.879 12.0767 8.879 14.0501C8.879 16.0234 9.434 17.6021 10.544 18.7861C11.654 19.9454 13.1217 20.5251 14.947 20.5251C17.1177 20.5251 19.0047 19.5137 20.608 17.4911L26.121 22.4121C24.8383 24.0894 23.2103 25.3721 21.237 26.2601C19.2637 27.1481 17.019 27.5921 14.503 27.5921Z" fill="url(#paint0_linear_46_41)"/>
<path d="M41.3092 27.5921C38.5219 27.5921 36.0182 27.0124 33.7982 25.8531C31.5782 24.6937 29.8392 23.0904 28.5812 21.0431C27.3232 18.9711 26.6942 16.6401 26.6942 14.0501C26.6942 11.4601 27.3232 9.14139 28.5812 7.09406C29.8392 5.02206 31.5782 3.40639 33.7982 2.24706C36.0182 1.08772 38.5219 0.508057 41.3092 0.508057C44.0965 0.508057 46.6002 1.08772 48.8202 2.24706C51.0402 3.40639 52.7792 5.02206 54.0372 7.09406C55.2952 9.14139 55.9242 11.4601 55.9242 14.0501C55.9242 16.6401 55.2952 18.9711 54.0372 21.0431C52.7792 23.0904 51.0402 24.6937 48.8202 25.8531C46.6002 27.0124 44.0965 27.5921 41.3092 27.5921ZM41.3092 20.5251C42.3945 20.5251 43.3689 20.2661 44.2322 19.7481C45.1202 19.2054 45.8232 18.4531 46.3412 17.4911C46.8592 16.5044 47.1182 15.3574 47.1182 14.0501C47.1182 12.7427 46.8592 11.6081 46.3412 10.6461C45.8232 9.65939 45.1202 8.90706 44.2322 8.38906C43.3689 7.84639 42.3945 7.57506 41.3092 7.57506C40.2239 7.57506 39.2372 7.84639 38.3492 8.38906C37.4859 8.90706 36.7952 9.65939 36.2772 10.6461C35.7592 11.6081 35.5002 12.7427 35.5002 14.0501C35.5002 15.3574 35.7592 16.5044 36.2772 17.4911C36.7952 18.4531 37.4859 19.2054 38.3492 19.7481C39.2372 20.2661 40.2239 20.5251 41.3092 20.5251Z" fill="white"/>
<path d="M41.3092 27.5921C38.5219 27.5921 36.0182 27.0124 33.7982 25.8531C31.5782 24.6937 29.8392 23.0904 28.5812 21.0431C27.3232 18.9711 26.6942 16.6401 26.6942 14.0501C26.6942 11.4601 27.3232 9.14139 28.5812 7.09406C29.8392 5.02206 31.5782 3.40639 33.7982 2.24706C36.0182 1.08772 38.5219 0.508057 41.3092 0.508057C44.0965 0.508057 46.6002 1.08772 48.8202 2.24706C51.0402 3.40639 52.7792 5.02206 54.0372 7.09406C55.2952 9.14139 55.9242 11.4601 55.9242 14.0501C55.9242 16.6401 55.2952 18.9711 54.0372 21.0431C52.7792 23.0904 51.0402 24.6937 48.8202 25.8531C46.6002 27.0124 44.0965 27.5921 41.3092 27.5921ZM41.3092 20.5251C42.3945 20.5251 43.3689 20.2661 44.2322 19.7481C45.1202 19.2054 45.8232 18.4531 46.3412 17.4911C46.8592 16.5044 47.1182 15.3574 47.1182 14.0501C47.1182 12.7427 46.8592 11.6081 46.3412 10.6461C45.8232 9.65939 45.1202 8.90706 44.2322 8.38906C43.3689 7.84639 42.3945 7.57506 41.3092 7.57506C40.2239 7.57506 39.2372 7.84639 38.3492 8.38906C37.4859 8.90706 36.7952 9.65939 36.2772 10.6461C35.7592 11.6081 35.5002 12.7427 35.5002 14.0501C35.5002 15.3574 35.7592 16.5044 36.2772 17.4911C36.7952 18.4531 37.4859 19.2054 38.3492 19.7481C39.2372 20.2661 40.2239 20.5251 41.3092 20.5251Z" fill="url(#paint1_linear_46_41)"/>
<path d="M84.2535 1.10006V27.0001H77.0755L67.2335 15.2341V27.0001H58.7235V1.10006H65.9015L75.7435 12.8661V1.10006H84.2535Z" fill="white"/>
<path d="M84.2535 1.10006V27.0001H77.0755L67.2335 15.2341V27.0001H58.7235V1.10006H65.9015L75.7435 12.8661V1.10006H84.2535Z" fill="url(#paint2_linear_46_41)"/>
<path d="M113.621 1.10006V27.0001H106.443L96.6008 15.2341V27.0001H88.0908V1.10006H95.2688L105.111 12.8661V1.10006H113.621Z" fill="white"/>
<path d="M113.621 1.10006V27.0001H106.443L96.6008 15.2341V27.0001H88.0908V1.10006H95.2688L105.111 12.8661V1.10006H113.621Z" fill="url(#paint3_linear_46_41)"/>
<path d="M138.992 20.4141V27.0001H117.458V1.10006H138.511V7.68606H126.042V10.7201H136.994V17.0101H126.042V20.4141H138.992Z" fill="white"/>
<path d="M138.992 20.4141V27.0001H117.458V1.10006H138.511V7.68606H126.042V10.7201H136.994V17.0101H126.042V20.4141H138.992Z" fill="url(#paint4_linear_46_41)"/>
<path d="M155.378 27.5921C152.64 27.5921 150.173 27.0247 147.978 25.8901C145.782 24.7307 144.056 23.1274 142.798 21.0801C141.564 19.0081 140.948 16.6647 140.948 14.0501C140.948 11.4354 141.564 9.10439 142.798 7.05706C144.056 4.98506 145.782 3.38172 147.978 2.24706C150.173 1.08772 152.64 0.508057 155.378 0.508057C157.894 0.508057 160.138 0.952057 162.112 1.84006C164.085 2.72806 165.713 4.01072 166.996 5.68806L161.483 10.6091C159.879 8.58639 157.992 7.57506 155.822 7.57506C153.996 7.57506 152.529 8.16706 151.419 9.35106C150.309 10.5104 149.754 12.0767 149.754 14.0501C149.754 16.0234 150.309 17.6021 151.419 18.7861C152.529 19.9454 153.996 20.5251 155.822 20.5251C157.992 20.5251 159.879 19.5137 161.483 17.4911L166.996 22.4121C165.713 24.0894 164.085 25.3721 162.112 26.2601C160.138 27.1481 157.894 27.5921 155.378 27.5921Z" fill="white"/>
<path d="M155.378 27.5921C152.64 27.5921 150.173 27.0247 147.978 25.8901C145.782 24.7307 144.056 23.1274 142.798 21.0801C141.564 19.0081 140.948 16.6647 140.948 14.0501C140.948 11.4354 141.564 9.10439 142.798 7.05706C144.056 4.98506 145.782 3.38172 147.978 2.24706C150.173 1.08772 152.64 0.508057 155.378 0.508057C157.894 0.508057 160.138 0.952057 162.112 1.84006C164.085 2.72806 165.713 4.01072 166.996 5.68806L161.483 10.6091C159.879 8.58639 157.992 7.57506 155.822 7.57506C153.996 7.57506 152.529 8.16706 151.419 9.35106C150.309 10.5104 149.754 12.0767 149.754 14.0501C149.754 16.0234 150.309 17.6021 151.419 18.7861C152.529 19.9454 153.996 20.5251 155.822 20.5251C157.992 20.5251 159.879 19.5137 161.483 17.4911L166.996 22.4121C165.713 24.0894 164.085 25.3721 162.112 26.2601C160.138 27.1481 157.894 27.5921 155.378 27.5921Z" fill="url(#paint5_linear_46_41)"/>
<path d="M174.59 7.87106H167.005V1.10006H190.907V7.87106H183.322V27.0001H174.59V7.87106Z" fill="white"/>
<path d="M174.59 7.87106H167.005V1.10006H190.907V7.87106H183.322V27.0001H174.59V7.87106Z" fill="url(#paint6_linear_46_41)"/>
<path d="M245.671 1.10006L237.383 27.0001H228.022L223.841 13.1621L219.438 27.0001H210.077L201.789 1.10006H210.78L215.294 15.8261L220.067 1.10006H228.096L232.61 16.0111L237.383 1.10006H245.671Z" fill="white"/>
<path d="M245.671 1.10006L237.383 27.0001H228.022L223.841 13.1621L219.438 27.0001H210.077L201.789 1.10006H210.78L215.294 15.8261L220.067 1.10006H228.096L232.61 16.0111L237.383 1.10006H245.671Z" fill="url(#paint7_linear_46_41)"/>
<path d="M247.24 1.10006H255.972V27.0001H247.24V1.10006Z" fill="white"/>
<path d="M247.24 1.10006H255.972V27.0001H247.24V1.10006Z" fill="url(#paint8_linear_46_41)"/>
<path d="M265.429 7.87106H257.844V1.10006H281.746V7.87106H274.161V27.0001H265.429V7.87106Z" fill="white"/>
<path d="M265.429 7.87106H257.844V1.10006H281.746V7.87106H274.161V27.0001H265.429V7.87106Z" fill="url(#paint9_linear_46_41)"/>
<path d="M309.174 1.10006V27.0001H300.442V17.4541H292.376V27.0001H283.644V1.10006H292.376V10.2761H300.442V1.10006H309.174Z" fill="white"/>
<path d="M309.174 1.10006V27.0001H300.442V17.4541H292.376V27.0001H283.644V1.10006H292.376V10.2761H300.442V1.10006H309.174Z" fill="url(#paint10_linear_46_41)"/>
<path d="M336.13 27.5921C332.158 27.5921 329.063 26.5191 326.843 24.3731C324.623 22.2271 323.513 19.2177 323.513 15.3451V1.10006H332.245V15.0861C332.245 16.9854 332.578 18.3667 333.244 19.2301C333.934 20.0934 334.921 20.5251 336.204 20.5251C337.486 20.5251 338.461 20.0934 339.127 19.2301C339.817 18.3667 340.163 16.9854 340.163 15.0861V1.10006H348.747V15.3451C348.747 19.2177 347.637 22.2271 345.417 24.3731C343.197 26.5191 340.101 27.5921 336.13 27.5921Z" fill="white"/>
<path d="M336.13 27.5921C332.158 27.5921 329.063 26.5191 326.843 24.3731C324.623 22.2271 323.513 19.2177 323.513 15.3451V1.10006H332.245V15.0861C332.245 16.9854 332.578 18.3667 333.244 19.2301C333.934 20.0934 334.921 20.5251 336.204 20.5251C337.486 20.5251 338.461 20.0934 339.127 19.2301C339.817 18.3667 340.163 16.9854 340.163 15.0861V1.10006H348.747V15.3451C348.747 19.2177 347.637 22.2271 345.417 24.3731C343.197 26.5191 340.101 27.5921 336.13 27.5921Z" fill="url(#paint11_linear_46_41)"/>
<path d="M362.036 27.5921C359.89 27.5921 357.794 27.3577 355.746 26.8891C353.724 26.3957 352.059 25.7421 350.751 24.9281L353.563 18.5641C354.797 19.2794 356.178 19.8591 357.707 20.3031C359.237 20.7224 360.704 20.9321 362.11 20.9321C363.319 20.9321 364.182 20.8211 364.7 20.5991C365.218 20.3524 365.477 19.9947 365.477 19.5261C365.477 18.9834 365.132 18.5764 364.441 18.3051C363.775 18.0337 362.665 17.7377 361.111 17.4171C359.113 16.9977 357.448 16.5537 356.116 16.0851C354.784 15.5917 353.625 14.8024 352.638 13.7171C351.652 12.6071 351.158 11.1147 351.158 9.24006C351.158 7.61206 351.615 6.13206 352.527 4.80006C353.44 3.46806 354.797 2.41972 356.597 1.65506C358.423 0.890389 360.63 0.508057 363.22 0.508057C364.996 0.508057 366.735 0.70539 368.437 1.10006C370.164 1.47006 371.681 2.02506 372.988 2.76506L370.361 9.09206C367.821 7.80939 365.416 7.16806 363.146 7.16806C360.902 7.16806 359.779 7.71072 359.779 8.79606C359.779 9.31406 360.112 9.70872 360.778 9.98006C361.444 10.2267 362.542 10.4981 364.071 10.7941C366.045 11.1641 367.71 11.5957 369.066 12.0891C370.423 12.5577 371.595 13.3347 372.581 14.4201C373.593 15.5054 374.098 16.9854 374.098 18.8601C374.098 20.4881 373.642 21.9681 372.729 23.3001C371.817 24.6074 370.448 25.6557 368.622 26.4451C366.822 27.2097 364.626 27.5921 362.036 27.5921Z" fill="white"/>
<path d="M362.036 27.5921C359.89 27.5921 357.794 27.3577 355.746 26.8891C353.724 26.3957 352.059 25.7421 350.751 24.9281L353.563 18.5641C354.797 19.2794 356.178 19.8591 357.707 20.3031C359.237 20.7224 360.704 20.9321 362.11 20.9321C363.319 20.9321 364.182 20.8211 364.7 20.5991C365.218 20.3524 365.477 19.9947 365.477 19.5261C365.477 18.9834 365.132 18.5764 364.441 18.3051C363.775 18.0337 362.665 17.7377 361.111 17.4171C359.113 16.9977 357.448 16.5537 356.116 16.0851C354.784 15.5917 353.625 14.8024 352.638 13.7171C351.652 12.6071 351.158 11.1147 351.158 9.24006C351.158 7.61206 351.615 6.13206 352.527 4.80006C353.44 3.46806 354.797 2.41972 356.597 1.65506C358.423 0.890389 360.63 0.508057 363.22 0.508057C364.996 0.508057 366.735 0.70539 368.437 1.10006C370.164 1.47006 371.681 2.02506 372.988 2.76506L370.361 9.09206C367.821 7.80939 365.416 7.16806 363.146 7.16806C360.902 7.16806 359.779 7.71072 359.779 8.79606C359.779 9.31406 360.112 9.70872 360.778 9.98006C361.444 10.2267 362.542 10.4981 364.071 10.7941C366.045 11.1641 367.71 11.5957 369.066 12.0891C370.423 12.5577 371.595 13.3347 372.581 14.4201C373.593 15.5054 374.098 16.9854 374.098 18.8601C374.098 20.4881 373.642 21.9681 372.729 23.3001C371.817 24.6074 370.448 25.6557 368.622 26.4451C366.822 27.2097 364.626 27.5921 362.036 27.5921Z" fill="url(#paint12_linear_46_41)"/>
<defs>
<linearGradient id="paint0_linear_46_41" x1="278.356" y1="2.62811" x2="116.293" y2="133.884" gradientUnits="userSpaceOnUse">
<stop stop-color="white"/>
<stop offset="0.0811669" stop-color="#FBF7E4"/>
<stop offset="0.251799" stop-color="#A8CAD1"/>
<stop offset="1" stop-color="#0CB6FF"/>
</linearGradient>
<linearGradient id="paint1_linear_46_41" x1="278.356" y1="2.62811" x2="116.293" y2="133.884" gradientUnits="userSpaceOnUse">
<stop stop-color="white"/>
<stop offset="0.0811669" stop-color="#FBF7E4"/>
<stop offset="0.251799" stop-color="#A8CAD1"/>
<stop offset="1" stop-color="#0CB6FF"/>
</linearGradient>
<linearGradient id="paint2_linear_46_41" x1="278.356" y1="2.62811" x2="116.293" y2="133.884" gradientUnits="userSpaceOnUse">
<stop stop-color="white"/>
<stop offset="0.0811669" stop-color="#FBF7E4"/>
<stop offset="0.251799" stop-color="#A8CAD1"/>
<stop offset="1" stop-color="#0CB6FF"/>
</linearGradient>
<linearGradient id="paint3_linear_46_41" x1="278.356" y1="2.62811" x2="116.293" y2="133.884" gradientUnits="userSpaceOnUse">
<stop stop-color="white"/>
<stop offset="0.0811669" stop-color="#FBF7E4"/>
<stop offset="0.251799" stop-color="#A8CAD1"/>
<stop offset="1" stop-color="#0CB6FF"/>
</linearGradient>
<linearGradient id="paint4_linear_46_41" x1="278.356" y1="2.62811" x2="116.293" y2="133.884" gradientUnits="userSpaceOnUse">
<stop stop-color="white"/>
<stop offset="0.0811669" stop-color="#FBF7E4"/>
<stop offset="0.251799" stop-color="#A8CAD1"/>
<stop offset="1" stop-color="#0CB6FF"/>
</linearGradient>
<linearGradient id="paint5_linear_46_41" x1="278.356" y1="2.62811" x2="116.293" y2="133.884" gradientUnits="userSpaceOnUse">
<stop stop-color="white"/>
<stop offset="0.0811669" stop-color="#FBF7E4"/>
<stop offset="0.251799" stop-color="#A8CAD1"/>
<stop offset="1" stop-color="#0CB6FF"/>
</linearGradient>
<linearGradient id="paint6_linear_46_41" x1="278.356" y1="2.62811" x2="116.293" y2="133.884" gradientUnits="userSpaceOnUse">
<stop stop-color="white"/>
<stop offset="0.0811669" stop-color="#FBF7E4"/>
<stop offset="0.251799" stop-color="#A8CAD1"/>
<stop offset="1" stop-color="#0CB6FF"/>
</linearGradient>
<linearGradient id="paint7_linear_46_41" x1="278.356" y1="2.62811" x2="116.293" y2="133.884" gradientUnits="userSpaceOnUse">
<stop stop-color="white"/>
<stop offset="0.0811669" stop-color="#FBF7E4"/>
<stop offset="0.251799" stop-color="#A8CAD1"/>
<stop offset="1" stop-color="#0CB6FF"/>
</linearGradient>
<linearGradient id="paint8_linear_46_41" x1="278.356" y1="2.62811" x2="116.293" y2="133.884" gradientUnits="userSpaceOnUse">
<stop stop-color="white"/>
<stop offset="0.0811669" stop-color="#FBF7E4"/>
<stop offset="0.251799" stop-color="#A8CAD1"/>
<stop offset="1" stop-color="#0CB6FF"/>
</linearGradient>
<linearGradient id="paint9_linear_46_41" x1="278.356" y1="2.62811" x2="116.293" y2="133.884" gradientUnits="userSpaceOnUse">
<stop stop-color="white"/>
<stop offset="0.0811669" stop-color="#FBF7E4"/>
<stop offset="0.251799" stop-color="#A8CAD1"/>
<stop offset="1" stop-color="#0CB6FF"/>
</linearGradient>
<linearGradient id="paint10_linear_46_41" x1="278.356" y1="2.62811" x2="116.293" y2="133.884" gradientUnits="userSpaceOnUse">
<stop stop-color="white"/>
<stop offset="0.0811669" stop-color="#FBF7E4"/>
<stop offset="0.251799" stop-color="#A8CAD1"/>
<stop offset="1" stop-color="#0CB6FF"/>
</linearGradient>
<linearGradient id="paint11_linear_46_41" x1="278.356" y1="2.62811" x2="116.293" y2="133.884" gradientUnits="userSpaceOnUse">
<stop stop-color="white"/>
<stop offset="0.0811669" stop-color="#FBF7E4"/>
<stop offset="0.251799" stop-color="#A8CAD1"/>
<stop offset="1" stop-color="#0CB6FF"/>
</linearGradient>
<linearGradient id="paint12_linear_46_41" x1="278.356" y1="2.62811" x2="116.293" y2="133.884" gradientUnits="userSpaceOnUse">
<stop stop-color="white"/>
<stop offset="0.0811669" stop-color="#FBF7E4"/>
<stop offset="0.251799" stop-color="#A8CAD1"/>
<stop offset="1" stop-color="#0CB6FF"/>
</linearGradient>
</defs>
</svg>
