<svg width="31" height="31" viewBox="0 0 31 31" fill="none" xmlns="http://www.w3.org/2000/svg">
<mask id="mask0_37_78" style="mask-type:alpha" maskUnits="userSpaceOnUse" x="0" y="0" width="31" height="31">
<circle cx="15.5" cy="15.5" r="15.5" fill="#C4C4C4"/>
</mask>
<g mask="url(#mask0_37_78)">
<path d="M-9.71708 13.1896L15.8151 -5.29081L39.1747 13.1896L15.8152 44.6874L-9.71708 13.1896Z" fill="url(#paint0_linear_37_78)"/>
<path opacity="0.8" d="M12.8881 46.9876L34.3439 17.4263L-2.84613 29.3462L12.8881 46.9876Z" fill="url(#paint1_linear_37_78)"/>
<path opacity="0.5" d="M-8.35867 -4.2096L31.4411 -7.96862L6.98241 45.1011L-8.35867 -4.2096Z" fill="url(#paint2_linear_37_78)"/>
<path fill-rule="evenodd" clip-rule="evenodd" d="M24 11C24 9.89543 23.1046 9 22 9H9C7.89543 9 7 9.89543 7 11V20C7 21.1046 7.89543 22 9 22H22C23.1046 22 24 21.1046 24 20V11ZM14.8903 16.531C15.2497 16.8075 15.7503 16.8075 16.1097 16.531L20.8348 12.8963C21.2132 12.6052 21.0074 12 20.5299 12H10.4701C9.99264 12 9.78679 12.6052 10.1652 12.8963L14.8903 16.531Z" fill="#C4C4C4"/>
<path fill-rule="evenodd" clip-rule="evenodd" d="M24 11C24 9.89543 23.1046 9 22 9H9C7.89543 9 7 9.89543 7 11V20C7 21.1046 7.89543 22 9 22H22C23.1046 22 24 21.1046 24 20V11ZM14.8903 16.531C15.2497 16.8075 15.7503 16.8075 16.1097 16.531L20.8348 12.8963C21.2132 12.6052 21.0074 12 20.5299 12H10.4701C9.99264 12 9.78679 12.6052 10.1652 12.8963L14.8903 16.531Z" fill="#0D4988"/>
</g>
<defs>
<linearGradient id="paint0_linear_37_78" x1="39.7179" y1="72.9362" x2="12.0898" y2="-0.988076" gradientUnits="userSpaceOnUse">
<stop stop-color="#1C006A"/>
<stop offset="0.889845" stop-color="#00D1FF"/>
</linearGradient>
<linearGradient id="paint1_linear_37_78" x1="28.1455" y1="59.861" x2="20.5168" y2="0.261745" gradientUnits="userSpaceOnUse">
<stop stop-color="#1C006A"/>
<stop offset="0.6437" stop-color="#00D1FF"/>
</linearGradient>
<linearGradient id="paint2_linear_37_78" x1="58.5899" y1="27.6977" x2="2.00941" y2="-4.75978" gradientUnits="userSpaceOnUse">
<stop offset="0.304119" stop-color="#0F006A"/>
<stop offset="1" stop-color="#00D1FF" stop-opacity="0.35"/>
</linearGradient>
</defs>
</svg>
