<svg width="31" height="31" viewBox="0 0 31 31" fill="none" xmlns="http://www.w3.org/2000/svg">
<mask id="mask0_37_79" style="mask-type:alpha" maskUnits="userSpaceOnUse" x="0" y="0" width="31" height="31">
<circle cx="15.5" cy="15.5" r="15.5" fill="#C4C4C4"/>
</mask>
<g mask="url(#mask0_37_79)">
<path d="M-9.71708 13.1896L15.8151 -5.29081L39.1747 13.1896L15.8152 44.6874L-9.71708 13.1896Z" fill="url(#paint0_linear_37_79)"/>
<path opacity="0.8" d="M12.8881 46.9876L34.3439 17.4263L-2.84613 29.3462L12.8881 46.9876Z" fill="url(#paint1_linear_37_79)"/>
<path opacity="0.5" d="M-8.35867 -4.2096L31.4411 -7.96862L6.98241 45.1011L-8.35867 -4.2096Z" fill="url(#paint2_linear_37_79)"/>
<path fill-rule="evenodd" clip-rule="evenodd" d="M12 24C10.8954 24 10 23.1046 10 22L10 8C10 6.89543 10.8954 6 12 6L12.2929 6C12.7456 6 13.1799 6.17986 13.5 6.5V6.5C13.8201 6.82014 14.2544 7 14.7071 7L16.2929 7C16.7456 7 17.1799 6.82014 17.5 6.5V6.5C17.8201 6.17985 18.2544 6 18.7071 6L19 6C20.1046 6 21 6.89543 21 8L21 22C21 23.1046 20.1046 24 19 24L12 24ZM15 22C14.4477 22 14 21.5523 14 21V21C14 20.4477 14.4477 20 15 20L16 20C16.5523 20 17 20.4477 17 21V21C17 21.5523 16.5523 22 16 22L15 22Z" fill="#C4C4C4"/>
<path fill-rule="evenodd" clip-rule="evenodd" d="M12 24C10.8954 24 10 23.1046 10 22L10 8C10 6.89543 10.8954 6 12 6L12.2929 6C12.7456 6 13.1799 6.17986 13.5 6.5V6.5C13.8201 6.82014 14.2544 7 14.7071 7L16.2929 7C16.7456 7 17.1799 6.82014 17.5 6.5V6.5C17.8201 6.17985 18.2544 6 18.7071 6L19 6C20.1046 6 21 6.89543 21 8L21 22C21 23.1046 20.1046 24 19 24L12 24ZM15 22C14.4477 22 14 21.5523 14 21V21C14 20.4477 14.4477 20 15 20L16 20C16.5523 20 17 20.4477 17 21V21C17 21.5523 16.5523 22 16 22L15 22Z" fill="#0D4988"/>
</g>
<defs>
<linearGradient id="paint0_linear_37_79" x1="39.7179" y1="72.9362" x2="12.0898" y2="-0.988076" gradientUnits="userSpaceOnUse">
<stop stop-color="#1C006A"/>
<stop offset="0.889845" stop-color="#00D1FF"/>
</linearGradient>
<linearGradient id="paint1_linear_37_79" x1="28.1455" y1="59.861" x2="20.5168" y2="0.261745" gradientUnits="userSpaceOnUse">
<stop stop-color="#1C006A"/>
<stop offset="0.6437" stop-color="#00D1FF"/>
</linearGradient>
<linearGradient id="paint2_linear_37_79" x1="58.5899" y1="27.6977" x2="2.00941" y2="-4.75978" gradientUnits="userSpaceOnUse">
<stop offset="0.304119" stop-color="#0F006A"/>
<stop offset="1" stop-color="#00D1FF" stop-opacity="0.35"/>
</linearGradient>
</defs>
</svg>
