<svg width="31" height="31" viewBox="0 0 31 31" fill="none" xmlns="http://www.w3.org/2000/svg">
<mask id="mask0_37_77" style="mask-type:alpha" maskUnits="userSpaceOnUse" x="0" y="0" width="31" height="31">
<circle cx="15.5" cy="15.5" r="15.5" fill="#C4C4C4"/>
</mask>
<g mask="url(#mask0_37_77)">
<path d="M-9.71708 13.1896L15.8151 -5.29078L39.1747 13.1896L15.8152 44.6874L-9.71708 13.1896Z" fill="url(#paint0_linear_37_77)"/>
<path opacity="0.8" d="M12.8881 46.9876L34.3439 17.4264L-2.84613 29.3462L12.8881 46.9876Z" fill="url(#paint1_linear_37_77)"/>
<path opacity="0.5" d="M-8.35867 -4.2096L31.4411 -7.96862L6.98241 45.1011L-8.35867 -4.2096Z" fill="url(#paint2_linear_37_77)"/>
<path fill-rule="evenodd" clip-rule="evenodd" d="M15.4999 5C11.5188 4.99999 8 8 8 12.0667C8 15.5833 13.0379 22.0683 14.7486 24.5908C15.1163 25.133 15.8909 25.1372 16.2642 24.5988C17.9821 22.1208 23 15.7707 23 12.0667C23 8 19.4811 5.00001 15.4999 5ZM15.4999 13.7359C16.8037 13.7359 17.8607 12.6758 17.8607 11.368C17.8607 10.0602 16.8037 9 15.4999 9C14.1961 9 13.1391 10.0602 13.1391 11.368C13.1391 12.6758 14.1961 13.7359 15.4999 13.7359Z" fill="#114685"/>
</g>
<defs>
<linearGradient id="paint0_linear_37_77" x1="39.7179" y1="72.9362" x2="12.0898" y2="-0.988046" gradientUnits="userSpaceOnUse">
<stop stop-color="#1C006A"/>
<stop offset="0.889845" stop-color="#00D1FF"/>
</linearGradient>
<linearGradient id="paint1_linear_37_77" x1="28.1455" y1="59.861" x2="20.5168" y2="0.261775" gradientUnits="userSpaceOnUse">
<stop stop-color="#1C006A"/>
<stop offset="0.6437" stop-color="#00D1FF"/>
</linearGradient>
<linearGradient id="paint2_linear_37_77" x1="58.5899" y1="27.6977" x2="2.00941" y2="-4.75978" gradientUnits="userSpaceOnUse">
<stop offset="0.304119" stop-color="#0F006A"/>
<stop offset="1" stop-color="#00D1FF" stop-opacity="0.35"/>
</linearGradient>
</defs>
</svg>
