<svg width="33" height="33" viewBox="0 0 33 33" fill="none" xmlns="http://www.w3.org/2000/svg">
<path fill-rule="evenodd" clip-rule="evenodd" d="M7.86693 0.0987174C3.82041 0.658555 0.644726 3.85919 0.10007 7.92664C-0.0333565 8.92318 -0.0333565 24.0706 0.10007 25.0672C0.369756 27.0808 1.25825 28.8813 2.68812 30.3114C4.11406 31.7376 5.92353 32.6309 7.93136 32.8999C8.9277 33.0334 24.0723 33.0334 25.0686 32.8999C29.1645 32.3512 32.3513 29.1638 32.8999 25.0672C33.0334 24.0706 33.0334 8.92318 32.8999 7.92664C32.3513 3.83 29.1645 0.642574 25.0686 0.0938845C24.1122 -0.0342182 8.79673 -0.0299009 7.86693 0.0987174ZM24.3721 2.96589C25.9475 3.11532 27.2395 3.72303 28.297 4.81203C29.3295 5.87533 29.8836 7.09507 30.0285 8.62335C30.1161 9.54778 30.1161 23.446 30.0285 24.3704C29.8836 25.8987 29.3295 27.1185 28.297 28.1818C27.2395 29.2708 25.9475 29.8785 24.3721 30.0279C23.4478 30.1155 9.55218 30.1155 8.62793 30.0279C7.05246 29.8785 5.76046 29.2708 4.70304 28.1818C3.67055 27.1185 3.11643 25.8987 2.97153 24.3704C2.88391 23.446 2.88391 9.54778 2.97153 8.62335C3.12093 7.04758 3.72854 5.75534 4.81733 4.69772C5.84293 3.70151 7.11624 3.1063 8.51119 2.97098C9.32637 2.89198 23.5442 2.8874 24.3721 2.96589ZM24.5727 5.67795C24.0909 5.86321 23.6455 6.28979 23.4226 6.77965C22.8002 8.14747 23.7488 9.70037 25.2577 9.78356C25.9838 9.82364 26.7257 9.45157 27.1265 8.84656C27.3863 8.45413 27.478 8.12118 27.4732 7.58757C27.4603 6.15151 25.9415 5.15156 24.5727 5.67795ZM15.3403 8.0898C13.4744 8.35039 11.8454 9.16353 10.5067 10.5025C9.06596 11.9435 8.26753 13.6462 8.051 15.7398C7.84303 17.7499 8.47988 19.9843 9.72697 21.6197C10.1048 22.1151 10.8828 22.8933 11.3781 23.2712C13.0132 24.5185 15.2472 25.1555 17.257 24.9475C19.3501 24.7309 21.0526 23.9323 22.4933 22.4913C23.934 21.0503 24.7325 19.3476 24.949 17.254C25.1197 15.604 24.7177 13.7585 23.8645 12.2762C22.1367 9.27404 18.7546 7.61303 15.3403 8.0898ZM17.7885 11.0867C19.7917 11.5647 21.4313 13.2046 21.9091 15.2081C22.0873 15.9555 22.0873 17.0383 21.9091 17.7857C21.5286 19.3814 20.411 20.7696 18.9269 21.4897C18.1181 21.8822 17.4295 22.0377 16.5 22.0377C15.5705 22.0377 14.8819 21.8822 14.0731 21.4897C12.589 20.7696 11.4714 19.3814 11.0909 17.7857C10.9127 17.0383 10.9127 15.9555 11.0909 15.2081C11.5649 13.2202 13.198 11.5756 15.1793 11.0907C15.904 10.9133 17.0542 10.9116 17.7885 11.0867Z" fill="#2EB1FF"/>
</svg>
