<svg width="351" height="239" viewBox="0 0 351 239" fill="none" xmlns="http://www.w3.org/2000/svg">
<path d="M149.65 68.26C151.003 68.7033 152.077 69.45 152.87 70.5C153.663 71.5267 154.06 72.81 154.06 74.35C154.06 76.4733 153.243 78.1183 151.61 79.285C149.977 80.4283 147.597 81 144.47 81H132.29V56.5H143.77C146.663 56.5 148.892 57.0717 150.455 58.215C152.018 59.335 152.8 60.8867 152.8 62.87C152.8 64.0833 152.52 65.1567 151.96 66.09C151.4 67.0233 150.63 67.7467 149.65 68.26ZM136.84 60.07V66.825H143.28C144.867 66.825 146.08 66.545 146.92 65.985C147.783 65.4017 148.215 64.5617 148.215 63.465C148.215 62.345 147.783 61.505 146.92 60.945C146.08 60.3617 144.867 60.07 143.28 60.07H136.84ZM144.19 77.43C147.713 77.43 149.475 76.2517 149.475 73.895C149.475 71.5383 147.713 70.36 144.19 70.36H136.84V77.43H144.19ZM158.566 56.5H163.116V77.15H175.926V81H158.566V56.5ZM189.361 81.35C185.978 81.35 183.341 80.405 181.451 78.515C179.561 76.6017 178.616 73.8717 178.616 70.325V56.5H183.166V70.15C183.166 74.9567 185.243 77.36 189.396 77.36C193.526 77.36 195.591 74.9567 195.591 70.15V56.5H200.071V70.325C200.071 73.8717 199.126 76.6017 197.236 78.515C195.37 80.405 192.745 81.35 189.361 81.35ZM224.469 77.185V81H206.094V56.5H223.979V60.315H210.644V66.685H222.474V70.43H210.644V77.185H224.469ZM236.786 81.35C234.896 81.35 233.064 81.0817 231.291 80.545C229.541 80.0083 228.152 79.2967 227.126 78.41L228.701 74.875C229.704 75.6683 230.929 76.3217 232.376 76.835C233.846 77.325 235.316 77.57 236.786 77.57C238.606 77.57 239.959 77.2783 240.846 76.695C241.756 76.1117 242.211 75.3417 242.211 74.385C242.211 73.685 241.954 73.1133 241.441 72.67C240.951 72.2033 240.321 71.8417 239.551 71.585C238.781 71.3283 237.731 71.0367 236.401 70.71C234.534 70.2667 233.017 69.8233 231.851 69.38C230.707 68.9367 229.716 68.2483 228.876 67.315C228.059 66.3583 227.651 65.075 227.651 63.465C227.651 62.1117 228.012 60.8867 228.736 59.79C229.482 58.67 230.591 57.7833 232.061 57.13C233.554 56.4767 235.374 56.15 237.521 56.15C239.014 56.15 240.484 56.3367 241.931 56.71C243.377 57.0833 244.626 57.62 245.676 58.32L244.241 61.855C243.167 61.225 242.047 60.7467 240.881 60.42C239.714 60.0933 238.582 59.93 237.486 59.93C235.689 59.93 234.347 60.2333 233.461 60.84C232.597 61.4467 232.166 62.2517 232.166 63.255C232.166 63.955 232.411 64.5267 232.901 64.97C233.414 65.4133 234.056 65.7633 234.826 66.02C235.596 66.2767 236.646 66.5683 237.976 66.895C239.796 67.315 241.289 67.7583 242.456 68.225C243.622 68.6683 244.614 69.3567 245.431 70.29C246.271 71.2233 246.691 72.4833 246.691 74.07C246.691 75.4233 246.317 76.6483 245.571 77.745C244.847 78.8417 243.739 79.7167 242.246 80.37C240.752 81.0233 238.932 81.35 236.786 81.35ZM255.481 60.35H247.361V56.5H268.151V60.35H260.031V81H255.481V60.35ZM282.319 81.35C279.822 81.35 277.57 80.8133 275.564 79.74C273.557 78.6433 271.982 77.1383 270.839 75.225C269.695 73.2883 269.124 71.13 269.124 68.75C269.124 66.37 269.695 64.2233 270.839 62.31C271.982 60.3733 273.557 58.8683 275.564 57.795C277.57 56.6983 279.822 56.15 282.319 56.15C284.815 56.15 287.067 56.6983 289.074 57.795C291.08 58.8683 292.655 60.3617 293.799 62.275C294.942 64.1883 295.514 66.3467 295.514 68.75C295.514 71.1533 294.942 73.3117 293.799 75.225C292.655 77.1383 291.08 78.6433 289.074 79.74C287.067 80.8133 284.815 81.35 282.319 81.35ZM282.319 77.36C283.952 77.36 285.422 76.9983 286.729 76.275C288.035 75.5283 289.062 74.5017 289.809 73.195C290.555 71.865 290.929 70.3833 290.929 68.75C290.929 67.1167 290.555 65.6467 289.809 64.34C289.062 63.01 288.035 61.9833 286.729 61.26C285.422 60.5133 283.952 60.14 282.319 60.14C280.685 60.14 279.215 60.5133 277.909 61.26C276.602 61.9833 275.575 63.01 274.829 64.34C274.082 65.6467 273.709 67.1167 273.709 68.75C273.709 70.3833 274.082 71.865 274.829 73.195C275.575 74.5017 276.602 75.5283 277.909 76.275C279.215 76.9983 280.685 77.36 282.319 77.36ZM321.756 56.5V81H318.011L304.501 64.41V81H299.986V56.5H303.731L317.241 73.09V56.5H321.756ZM346.346 77.185V81H327.971V56.5H345.856V60.315H332.521V66.685H344.351V70.43H332.521V77.185H346.346Z" fill="white"/>
<path d="M134.4 103.755C133.552 103.755 132.784 103.571 132.096 103.203C131.416 102.827 130.88 102.311 130.488 101.655C130.104 100.999 129.912 100.259 129.912 99.4349C129.912 98.6109 130.108 97.8709 130.5 97.2149C130.892 96.5589 131.428 96.0469 132.108 95.6789C132.796 95.3029 133.564 95.1149 134.412 95.1149C135.1 95.1149 135.728 95.2349 136.296 95.4749C136.864 95.7149 137.344 96.0629 137.736 96.5189L136.728 97.4669C136.12 96.8109 135.372 96.4829 134.484 96.4829C133.908 96.4829 133.392 96.6109 132.936 96.8669C132.48 97.1149 132.124 97.4629 131.868 97.9109C131.612 98.3589 131.484 98.8669 131.484 99.4349C131.484 100.003 131.612 100.511 131.868 100.959C132.124 101.407 132.48 101.759 132.936 102.015C133.392 102.263 133.908 102.387 134.484 102.387C135.372 102.387 136.12 102.055 136.728 101.391L137.736 102.351C137.344 102.807 136.86 103.155 136.284 103.395C135.716 103.635 135.088 103.755 134.4 103.755ZM144.383 101.691H140.183L139.355 103.635H137.747L141.527 95.2349H143.063L146.855 103.635H145.223L144.383 101.691ZM143.867 100.467L142.283 96.7949L140.711 100.467H143.867ZM151.26 95.2349C151.988 95.2349 152.62 95.3549 153.156 95.5949C153.7 95.8349 154.116 96.1789 154.404 96.6269C154.692 97.0749 154.836 97.6069 154.836 98.2229C154.836 98.8309 154.692 99.3629 154.404 99.8189C154.116 100.267 153.7 100.611 153.156 100.851C152.62 101.091 151.988 101.211 151.26 101.211H149.364V103.635H147.804V95.2349H151.26ZM151.188 99.8909C151.868 99.8909 152.384 99.7469 152.736 99.4589C153.088 99.1709 153.264 98.7589 153.264 98.2229C153.264 97.6869 153.088 97.2749 152.736 96.9869C152.384 96.6989 151.868 96.5549 151.188 96.5549H149.364V99.8909H151.188ZM156.273 95.2349H157.833V103.635H156.273V95.2349ZM161.689 96.5549H158.905V95.2349H166.033V96.5549H163.249V103.635H161.689V96.5549ZM172.11 101.691H167.91L167.082 103.635H165.474L169.254 95.2349H170.79L174.582 103.635H172.95L172.11 101.691ZM171.594 100.467L170.01 96.7949L168.438 100.467H171.594ZM175.531 95.2349H177.091V102.315H181.483V103.635H175.531V95.2349ZM193.507 103.635L193.495 98.0669L190.735 102.675H190.039L187.279 98.1389V103.635H185.791V95.2349H187.075L190.411 100.803L193.687 95.2349H194.971L194.983 103.635H193.507ZM202.579 101.691H198.379L197.551 103.635H195.943L199.723 95.2349H201.259L205.051 103.635H203.419L202.579 101.691ZM202.063 100.467L200.479 96.7949L198.907 100.467H202.063ZM213.464 95.2349V103.635H212.18L207.548 97.9469V103.635H206V95.2349H207.284L211.916 100.923V95.2349H213.464ZM221.043 101.691H216.843L216.015 103.635H214.407L218.187 95.2349H219.723L223.515 103.635H221.883L221.043 101.691ZM220.527 100.467L218.943 96.7949L217.371 100.467H220.527ZM230.082 99.3389H231.558V102.687C231.126 103.031 230.622 103.295 230.046 103.479C229.47 103.663 228.878 103.755 228.27 103.755C227.414 103.755 226.642 103.571 225.954 103.203C225.266 102.827 224.726 102.311 224.334 101.655C223.942 100.999 223.746 100.259 223.746 99.4349C223.746 98.6109 223.942 97.8709 224.334 97.2149C224.726 96.5589 225.266 96.0469 225.954 95.6789C226.65 95.3029 227.43 95.1149 228.294 95.1149C228.998 95.1149 229.638 95.2309 230.214 95.4629C230.79 95.6949 231.274 96.0349 231.666 96.4829L230.682 97.4429C230.042 96.8029 229.27 96.4829 228.366 96.4829C227.774 96.4829 227.246 96.6069 226.782 96.8549C226.326 97.1029 225.966 97.4509 225.702 97.8989C225.446 98.3469 225.318 98.8589 225.318 99.4349C225.318 99.9949 225.446 100.499 225.702 100.947C225.966 101.395 226.326 101.747 226.782 102.003C227.246 102.259 227.77 102.387 228.354 102.387C229.01 102.387 229.586 102.243 230.082 101.955V99.3389ZM239.795 102.327V103.635H233.495V95.2349H239.627V96.5429H235.055V98.7269H239.111V100.011H235.055V102.327H239.795ZM249.13 103.635L249.118 98.0669L246.358 102.675H245.662L242.902 98.1389V103.635H241.414V95.2349H242.698L246.034 100.803L249.31 95.2349H250.594L250.606 103.635H249.13ZM259.055 102.327V103.635H252.755V95.2349H258.887V96.5429H254.315V98.7269H258.371V100.011H254.315V102.327H259.055ZM268.138 95.2349V103.635H266.854L262.222 97.9469V103.635H260.674V95.2349H261.958L266.59 100.923V95.2349H268.138ZM271.973 96.5549H269.189V95.2349H276.317V96.5549H273.533V103.635H271.973V96.5549Z" fill="white"/>
<path d="M65.7704 107.081H30.711L0 81.8054L91.8612 0V107.081H65.7704Z" fill="url(#paint0_linear_131_39)"/>
<path opacity="0.9" d="M65.7704 110H30.711L0 135.275L65.7704 239L91.8612 110H65.7704Z" fill="url(#paint1_linear_131_39)"/>
<path opacity="0.5" d="M130 153.5L91.8613 110H65.7705L130 153.5Z" fill="url(#paint2_linear_131_39)"/>
<mask id="mask0_131_39" style="mask-type:alpha" maskUnits="userSpaceOnUse" x="65" y="0" width="27" height="108">
<path d="M91.8611 0V107.081H65.7704L91.8611 0Z" fill="url(#paint3_linear_131_39)"/>
</mask>
<g mask="url(#mask0_131_39)">
<path opacity="0.5" d="M91.8611 0V107.081H65.7704L91.8611 0Z" fill="url(#paint4_linear_131_39)"/>
<g opacity="0.5" filter="url(#filter0_f_131_39)">
<ellipse cx="98.5" cy="69.5" rx="20.5" ry="18.5" fill="#00F0FF"/>
</g>
<g opacity="0.3" filter="url(#filter1_f_131_39)">
<circle cx="92.3194" cy="82.3194" r="10.3194" fill="white"/>
</g>
</g>
<path opacity="0.5" d="M91.8613 0L30.7111 107.081H65.7705L91.8613 0Z" fill="url(#paint5_linear_131_39)"/>
<path opacity="0.3" d="M30.711 107.081H91.8612V93.7718L0 81.8054L30.711 107.081Z" fill="url(#paint6_linear_131_39)"/>
<defs>
<filter id="filter0_f_131_39" x="58" y="31" width="81" height="77" filterUnits="userSpaceOnUse" color-interpolation-filters="sRGB">
<feFlood flood-opacity="0" result="BackgroundImageFix"/>
<feBlend mode="normal" in="SourceGraphic" in2="BackgroundImageFix" result="shape"/>
<feGaussianBlur stdDeviation="10" result="effect1_foregroundBlur_131_39"/>
</filter>
<filter id="filter1_f_131_39" x="75" y="65" width="34.6388" height="34.6388" filterUnits="userSpaceOnUse" color-interpolation-filters="sRGB">
<feFlood flood-opacity="0" result="BackgroundImageFix"/>
<feBlend mode="normal" in="SourceGraphic" in2="BackgroundImageFix" result="shape"/>
<feGaussianBlur stdDeviation="3.5" result="effect1_foregroundBlur_131_39"/>
</filter>
<linearGradient id="paint0_linear_131_39" x1="40.3802" y1="176.327" x2="99.1558" y2="6.28136" gradientUnits="userSpaceOnUse">
<stop stop-color="#1C006A"/>
<stop offset="1" stop-color="#00D1FF"/>
</linearGradient>
<linearGradient id="paint1_linear_131_39" x1="68" y1="107.5" x2="68" y2="263.5" gradientUnits="userSpaceOnUse">
<stop stop-color="#01D1FF" stop-opacity="0.08"/>
<stop offset="0.375986" stop-color="#01CFFE" stop-opacity="0"/>
</linearGradient>
<linearGradient id="paint2_linear_131_39" x1="87.5" y1="183" x2="118" y2="65" gradientUnits="userSpaceOnUse">
<stop offset="0.433915" stop-color="#00B2FF" stop-opacity="0"/>
<stop offset="1" stop-color="#00D1FF"/>
</linearGradient>
<linearGradient id="paint3_linear_131_39" x1="126.973" y1="80.7604" x2="69.9923" y2="52.0456" gradientUnits="userSpaceOnUse">
<stop stop-color="#02006A"/>
<stop offset="1" stop-color="#00D1FF"/>
</linearGradient>
<linearGradient id="paint4_linear_131_39" x1="126.973" y1="80.7604" x2="69.9923" y2="52.0456" gradientUnits="userSpaceOnUse">
<stop stop-color="#02006A"/>
<stop offset="1" stop-color="#00D1FF"/>
</linearGradient>
<linearGradient id="paint5_linear_131_39" x1="80.3118" y1="127.871" x2="47.559" y2="45.3156" gradientUnits="userSpaceOnUse">
<stop offset="0.255737" stop-color="#0F006A"/>
<stop offset="0.774871" stop-color="#00D1FF" stop-opacity="0.35"/>
</linearGradient>
<linearGradient id="paint6_linear_131_39" x1="120.243" y1="175.43" x2="72.2357" y2="72.2357" gradientUnits="userSpaceOnUse">
<stop stop-color="#00116A"/>
<stop offset="0.983204" stop-color="#00D1FF"/>
</linearGradient>
</defs>
</svg>
