<svg width="62" height="62" viewBox="0 0 62 62" fill="none" xmlns="http://www.w3.org/2000/svg">
<path d="M60 31C60 47.0163 47.0163 60 31 60V62C48.1208 62 62 48.1208 62 31H60ZM31 60C14.9837 60 2 47.0163 2 31H0C0 48.1208 13.8792 62 31 62V60ZM2 31C2 14.9837 14.9837 2 31 2V0C13.8792 0 0 13.8792 0 31H2ZM31 2C47.0163 2 60 14.9837 60 31H62C62 13.8792 48.1208 0 31 0V2ZM46.2929 15.2929L30.7929 30.7929L32.2071 32.2071L47.7071 16.7071L46.2929 15.2929ZM30.7929 30.7929L15.2929 46.2929L16.7071 47.7071L32.2071 32.2071L30.7929 30.7929ZM15.2929 16.7071L30.7929 32.2071L32.2071 30.7929L16.7071 15.2929L15.2929 16.7071ZM30.7929 32.2071L46.2929 47.7071L47.7071 46.2929L32.2071 30.7929L30.7929 32.2071Z" fill="#ffffff"/>
</svg>
