<svg width="267" height="31" viewBox="0 0 267 31" fill="none" xmlns="http://www.w3.org/2000/svg">
<path d="M13.038 30.656C10.66 30.656 8.33663 30.3963 6.06796 29.877C3.82663 29.3303 1.98163 28.606 0.532959 27.704L3.64896 20.652C5.01563 21.4446 6.54629 22.087 8.24096 22.579C9.93563 23.0437 11.562 23.276 13.12 23.276C14.4593 23.276 15.416 23.153 15.99 22.907C16.564 22.6336 16.851 22.2373 16.851 21.718C16.851 21.1166 16.4683 20.6656 15.703 20.365C14.965 20.0643 13.735 19.7363 12.013 19.381C9.79896 18.9163 7.95396 18.4243 6.47796 17.905C5.00196 17.3583 3.71729 16.4836 2.62396 15.281C1.53063 14.051 0.983959 12.3973 0.983959 10.32C0.983959 8.51598 1.48963 6.87598 2.50096 5.39998C3.51229 3.92398 5.01563 2.76231 7.01096 1.91498C9.03363 1.06765 11.48 0.643982 14.35 0.643982C16.318 0.643982 18.245 0.862648 20.131 1.29998C22.0443 1.70998 23.7253 2.32498 25.174 3.14498L22.263 10.156C19.4476 8.73465 16.7826 8.02398 14.268 8.02398C11.7806 8.02398 10.537 8.62532 10.537 9.82798C10.537 10.402 10.906 10.8393 11.644 11.14C12.382 11.4133 13.5983 11.714 15.293 12.042C17.4796 12.452 19.3246 12.9303 20.828 13.477C22.3313 13.9963 23.6296 14.8573 24.723 16.06C25.8436 17.2626 26.404 18.9026 26.404 20.98C26.404 22.784 25.8983 24.424 24.887 25.9C23.8756 27.3486 22.3586 28.5103 20.336 29.385C18.3406 30.2323 15.908 30.656 13.038 30.656Z" fill="white"/>
<path d="M34.7049 8.80298H26.2999V1.29998H52.7859V8.80298H44.3809V30H34.7049V8.80298Z" fill="white"/>
<path d="M67.189 22.784H64.565V30H54.889V1.29998H68.706C71.3574 1.29998 73.667 1.73731 75.635 2.61198C77.603 3.48665 79.12 4.74398 80.186 6.38398C81.252 8.02398 81.785 9.93732 81.785 12.124C81.785 14.174 81.3204 15.9643 80.391 17.495C79.4617 19.0256 78.1224 20.242 76.373 21.144L82.4 30H72.068L67.189 22.784ZM72.027 12.124C72.027 11.058 71.699 10.238 71.043 9.66398C70.387 9.06265 69.403 8.76198 68.091 8.76198H64.565V15.486H68.091C69.403 15.486 70.387 15.199 71.043 14.625C71.699 14.0236 72.027 13.19 72.027 12.124Z" fill="white"/>
<path d="M104.586 24.998H93.6798L91.7528 30H81.9128L94.4588 1.29998H103.971L116.517 30H106.513L104.586 24.998ZM101.921 18.028L99.1328 10.812L96.3448 18.028H101.921Z" fill="white"/>
<path d="M122.442 8.80298H114.037V1.29998H140.523V8.80298H132.118V30H122.442V8.80298Z" fill="white"/>
<path d="M166.488 22.702V30H142.626V1.29998H165.955V8.59798H152.138V11.96H164.274V18.93H152.138V22.702H166.488Z" fill="white"/>
<path d="M188.786 14.871H197.191V27.007C195.496 28.1823 193.528 29.0843 191.287 29.713C189.045 30.3416 186.845 30.656 184.686 30.656C181.624 30.656 178.877 30.0273 176.445 28.77C174.012 27.4853 172.099 25.7086 170.705 23.44C169.338 21.144 168.655 18.5473 168.655 15.65C168.655 12.7526 169.338 10.1696 170.705 7.90098C172.099 5.60498 174.026 3.82831 176.486 2.57098C178.973 1.28632 181.775 0.643982 184.891 0.643982C187.706 0.643982 190.221 1.12231 192.435 2.07898C194.676 3.00831 196.535 4.37498 198.011 6.17898L191.82 11.632C190.016 9.52731 187.87 8.47498 185.383 8.47498C183.251 8.47498 181.556 9.11732 180.299 10.402C179.041 11.6866 178.413 13.436 178.413 15.65C178.413 17.8093 179.028 19.545 180.258 20.857C181.515 22.169 183.182 22.825 185.26 22.825C186.49 22.825 187.665 22.5926 188.786 22.128V14.871Z" fill="white"/>
<path d="M200.903 1.29998H210.579V30H200.903V1.29998Z" fill="white"/>
<path d="M238.689 22.702V30H214.827V1.29998H238.156V8.59798H224.339V11.96H236.475V18.93H224.339V22.702H238.689Z" fill="white"/>
<path d="M252.705 30.656C250.327 30.656 248.004 30.3963 245.735 29.877C243.494 29.3303 241.649 28.606 240.2 27.704L243.316 20.652C244.683 21.4446 246.214 22.087 247.908 22.579C249.603 23.0437 251.229 23.276 252.787 23.276C254.127 23.276 255.083 23.153 255.657 22.907C256.231 22.6336 256.518 22.2373 256.518 21.718C256.518 21.1166 256.136 20.6656 255.37 20.365C254.632 20.0643 253.402 19.7363 251.68 19.381C249.466 18.9163 247.621 18.4243 246.145 17.905C244.669 17.3583 243.385 16.4836 242.291 15.281C241.198 14.051 240.651 12.3973 240.651 10.32C240.651 8.51598 241.157 6.87598 242.168 5.39998C243.18 3.92398 244.683 2.76231 246.678 1.91498C248.701 1.06765 251.147 0.643982 254.017 0.643982C255.985 0.643982 257.912 0.862648 259.798 1.29998C261.712 1.70998 263.393 2.32498 264.841 3.14498L261.93 10.156C259.115 8.73465 256.45 8.02398 253.935 8.02398C251.448 8.02398 250.204 8.62532 250.204 9.82798C250.204 10.402 250.573 10.8393 251.311 11.14C252.049 11.4133 253.266 11.714 254.96 12.042C257.147 12.452 258.992 12.9303 260.495 13.477C261.999 13.9963 263.297 14.8573 264.39 16.06C265.511 17.2626 266.071 18.9026 266.071 20.98C266.071 22.784 265.566 24.424 264.554 25.9C263.543 27.3486 262.026 28.5103 260.003 29.385C258.008 30.2323 255.575 30.656 252.705 30.656Z" fill="white"/>
</svg>
