<svg width="445" height="75" viewBox="0 0 445 75" fill="none" xmlns="http://www.w3.org/2000/svg">
<path d="M4.13261 0H20.417C24.1889 0 27.5343 0.705168 30.4534 2.1155C33.3724 3.52584 35.6355 5.52654 37.2426 8.11762C38.8498 10.7087 39.6533 13.7426 39.6533 17.2192C39.6533 20.6958 38.8498 23.7297 37.2426 26.3208C35.6355 28.9118 33.3724 30.9126 30.4534 32.3229C27.5343 33.7332 24.1889 34.4384 20.417 34.4384H4.13261V0ZM20.0235 26.6652C22.9753 26.6652 25.3368 25.8288 27.1079 24.1561C28.9118 22.4833 29.8138 20.1711 29.8138 17.2192C29.8138 14.2673 28.9118 11.955 27.1079 10.2823C25.3368 8.6096 22.9753 7.77324 20.0235 7.77324H13.8737V26.6652H20.0235Z" fill="white"/>
<path d="M44.2864 0H54.0275V34.4384H44.2864V0Z" fill="white"/>
<path d="M70.207 7.52725V15.1037H85.4091V22.6309H70.207V34.4384H60.4659V0H87.4754V7.52725H70.207Z" fill="white"/>
<path d="M101.28 7.52725V15.1037H116.482V22.6309H101.28V34.4384H91.5392V0H118.549V7.52725H101.28Z" fill="white"/>
<path d="M150.262 26.9111V34.4384H122.613V0H149.622V7.52725H132.255V13.3326H147.556V20.6138H132.255V26.9111H150.262Z" fill="white"/>
<path d="M170.23 25.2876H164.916V34.4384H155.175V0H170.919C174.034 0 176.74 0.524775 179.036 1.57433C181.332 2.59108 183.103 4.06701 184.349 6.00212C185.596 7.90443 186.219 10.1511 186.219 12.7422C186.219 15.2349 185.629 17.416 184.448 19.2855C183.3 21.1222 181.644 22.5653 179.479 23.6149L186.908 34.4384H176.478L170.23 25.2876ZM176.379 12.7422C176.379 11.1351 175.871 9.88874 174.854 9.00318C173.838 8.11762 172.329 7.67484 170.328 7.67484H164.916V17.7604H170.328C172.329 17.7604 173.838 17.334 174.854 16.4812C175.871 15.5957 176.379 14.3493 176.379 12.7422Z" fill="white"/>
<path d="M218.75 26.9111V34.4384H191.101V0H218.111V7.52725H200.744V13.3326H216.044V20.6138H200.744V26.9111H218.75Z" fill="white"/>
<path d="M256.429 0V34.4384H248.41L233.208 16.0876V34.4384H223.664V0H231.683L246.885 18.3507V0H256.429Z" fill="white"/>
<path d="M270.139 7.72404H259.562V0H290.409V7.72404H279.88V34.4384H270.139V7.72404Z" fill="white"/>
<path d="M293.546 0H303.287V34.4384H293.546V0Z" fill="white"/>
<path d="M332.799 27.7475H318.236L315.531 34.4384H305.593L320.795 0H330.388L345.639 34.4384H335.505L332.799 27.7475ZM329.945 20.5646L325.518 9.54435L321.09 20.5646H329.945Z" fill="white"/>
<path d="M353.51 7.72404H342.932V0H373.779V7.72404H363.251V34.4384H353.51V7.72404Z" fill="white"/>
<path d="M404.566 26.9111V34.4384H376.917V0H403.926V7.52725H386.559V13.3326H401.86V20.6138H386.559V26.9111H404.566Z" fill="white"/>
<path d="M409.479 0H425.764C429.535 0 432.881 0.705168 435.8 2.1155C438.719 3.52584 440.982 5.52654 442.589 8.11762C444.196 10.7087 445 13.7426 445 17.2192C445 20.6958 444.196 23.7297 442.589 26.3208C440.982 28.9118 438.719 30.9126 435.8 32.3229C432.881 33.7332 429.535 34.4384 425.764 34.4384H409.479V0ZM425.37 26.6652C428.322 26.6652 430.683 25.8288 432.455 24.1561C434.258 22.4833 435.16 20.1711 435.16 17.2192C435.16 14.2673 434.258 11.955 432.455 10.2823C430.683 8.6096 428.322 7.77324 425.37 7.77324H419.22V26.6652H425.37Z" fill="white"/>
<path d="M27.2063 68.1599H12.6438L9.93793 74.8508H0L15.2021 40.4124H24.7956L40.0469 74.8508H29.9122L27.2063 68.1599ZM24.3529 60.977L19.9251 49.9567L15.4973 60.977H24.3529Z" fill="white"/>
<path d="M42.3165 40.4124H52.0577V67.1267H68.4897V74.8508H42.3165V40.4124Z" fill="white"/>
<path d="M87.5957 40.4124C90.7116 40.4124 93.4174 40.9372 95.7133 41.9867C98.0092 43.0035 99.7803 44.4794 101.027 46.4145C102.273 48.3168 102.896 50.5635 102.896 53.1546C102.896 55.7457 102.273 57.9924 101.027 59.8947C99.7803 61.797 98.0092 63.2729 95.7133 64.3225C93.4174 65.3392 90.7116 65.8476 87.5957 65.8476H81.5936V74.8508H71.8524V40.4124H87.5957ZM87.0053 58.1728C89.006 58.1728 90.5148 57.7464 91.5315 56.8936C92.5483 56.0081 93.0567 54.7617 93.0567 53.1546C93.0567 51.5475 92.5483 50.3011 91.5315 49.4156C90.5148 48.53 89.006 48.0872 87.0053 48.0872H81.5936V58.1728H87.0053Z" fill="white"/>
<path d="M139.919 40.4124V74.8508H130.178V61.4198H116.895V74.8508H107.154V40.4124H116.895V53.3514H130.178V40.4124H139.919Z" fill="white"/>
<path d="M169.372 68.1599H154.81L152.104 74.8508H142.166L157.368 40.4124H166.962L182.213 74.8508H172.078L169.372 68.1599ZM166.519 60.977L162.091 49.9567L157.663 60.977H166.519Z" fill="white"/>
</svg>
